<?xml version="1.0" standalone="no"?>
<!DOCTYPE svg PUBLIC "-//W3C//DTD SVG 20010904//EN"
 "http://www.w3.org/TR/2001/REC-SVG-20010904/DTD/svg10.dtd">
<svg version="1.0" xmlns="http://www.w3.org/2000/svg"
 width="120.000000pt" height="120.000000pt" viewBox="0 0 120.000000 120.000000"
 preserveAspectRatio="xMidYMid meet">
<metadata>
Created by potrace 1.11, written by Peter Selinger 2001-2013
</metadata>
<g transform="translate(0.000000,120.000000) scale(0.100000,-0.100000)"
fill="#000000" stroke="none">
<path d="M558 1099 c-206 -30 -405 -163 -408 -271 -1 -48 81 -75 133 -46 21
12 19 13 -22 18 -80 9 -81 57 -1 137 128 128 360 176 406 85 10 -19 3 -106 -9
-118 -1 -2 -20 -5 -42 -7 -21 -2 -41 -9 -43 -15 -2 -8 10 -10 37 -7 l40 4 -17
-37 c-20 -43 -108 -200 -125 -223 -7 -8 -42 -29 -79 -46 -187 -87 -337 -226
-398 -367 -35 -83 9 -137 83 -101 76 37 240 223 404 461 13 17 37 35 57 41 20
6 34 7 31 3 -3 -5 -35 -53 -71 -107 -81 -120 -117 -190 -104 -198 15 -9 26 1
56 53 77 133 178 273 207 289 26 13 29 17 15 22 -15 5 -11 15 27 70 50 71 53
81 28 81 -11 0 -39 -32 -73 -84 -39 -61 -63 -87 -85 -95 -17 -6 -34 -11 -37
-11 -4 0 15 37 41 83 26 45 55 99 64 120 10 20 23 38 30 38 77 8 226 -22 310
-61 91 -43 135 -116 105 -174 -20 -39 -75 -74 -148 -96 -85 -24 -114 -29 -240
-36 -110 -6 -140 -17 -105 -37 86 -50 493 -219 518 -215 34 6 18 21 -55 50
-40 16 -91 37 -113 47 -22 10 -89 40 -150 66 -60 26 -114 51 -120 56 -5 5 9 9
35 9 94 1 233 29 308 63 49 21 126 92 117 107 -4 6 -1 10 5 10 14 0 7 47 -10
81 -46 86 -193 143 -400 154 -48 3 -54 5 -50 21 3 11 5 43 5 71 0 41 -5 57
-22 74 -32 32 -81 46 -135 38z m-144 -616 c-126 -172 -253 -317 -297 -340 -52
-27 -70 24 -33 94 26 50 125 162 184 208 52 41 176 114 195 115 4 0 -18 -35
-49 -77z"/>
</g>
</svg>
